<?xml version="1.0" encoding="UTF-8" standalone="no"?>
<!DOCTYPE svg PUBLIC "-//W3C//DTD SVG 1.1//EN" "http://www.w3.org/Graphics/SVG/1.1/DTD/svg11.dtd">
<svg width="100%" height="100%" viewBox="0 0 844 216" version="1.1" xmlns="http://www.w3.org/2000/svg" xmlns:xlink="http://www.w3.org/1999/xlink" xml:space="preserve" xmlns:serif="http://www.serif.com/" style="fill-rule:evenodd;clip-rule:evenodd;stroke-linejoin:round;stroke-miterlimit:2;">
    <g transform="matrix(1,0,0,1,-155,-369)">
        <g>
            <g>
                <g transform="matrix(1.29617,0,0,1.309,-330.067,-31.512)">
                    <text x="860.805px" y="425.582px" style="font-family:'Exo2-Black', 'Exo 2';font-weight:900;font-size:54.925px;fill:rgb(255,47,47);">TR<tspan x="931.878px " y="425.582px ">O</tspan>N</text>
                </g>
                <g transform="matrix(0.73558,0,0,0.73558,94.5437,129.592)">
                    <text x="116.029px" y="435.543px" style="font-family:'Exo2-Black', 'Exo 2';font-weight:900;font-size:96px;fill:white;">Dec<tspan x="290.173px " y="435.543px ">e</tspan>ntr<tspan x="491.293px " y="435.543px ">a</tspan>liz<tspan x="662.941px " y="435.543px ">e</tspan>d NFT</text>
                    <text x="116.029px" y="531.543px" style="font-family:'Exo2-Black', 'Exo 2';font-weight:900;font-size:96px;fill:white;">auction house on</text>
                    <text x="935.581px" y="531.543px" style="font-family:'Exo2-Black', 'Exo 2';font-weight:900;font-size:96px;fill:white;">TR<tspan x="1059.81px " y="531.543px ">O</tspan>N</text>
                </g>
                <g transform="matrix(0.800397,0,0,0.800397,87.9962,210.545)">
                    <text x="116.029px" y="435.543px" style="font-family:'Exo2-Black', 'Exo 2';font-weight:900;font-size:30.326px;fill:white;fill-opacity:0.85;">auction <tspan x="234.088px 251.981px " y="435.543px 435.543px ">yo</tspan>ur<tspan x="302.322px " y="435.543px "> </tspan>NFT<tspan x="364.491px " y="435.543px ">s</tspan> and bet <tspan x="505.386px 518.214px 536.743px 549.905px 556.273px 574.681px " y="435.543px 435.543px 435.543px 435.543px 435.543px 435.543px ">for ot</tspan>hers in <tspan x="695.41px " y="435.543px ">t</tspan>he r<tspan x="765.372px " y="435.543px ">e</tspan>al<tspan x="811.65px 822.78px " y="435.543px 435.543px ">-t</tspan>ime auciton house</text>
                </g>
            </g>
        </g>
    </g>
</svg>
